<svg width="93" height="31" viewBox="0 0 93 31" fill="none" xmlns="http://www.w3.org/2000/svg">
<path d="M18.34 26.84L18.32 30H0.66V1.34H18.32V4.5H4.54V14.02H15.7V17.06H4.54V26.84H18.34ZM26.5488 9.74V30H22.9888V9.74H26.5488ZM27.3088 3.38C27.3088 3.72667 27.2354 4.05333 27.0888 4.36C26.9554 4.65333 26.7688 4.92 26.5288 5.16C26.3021 5.38667 26.0288 5.56667 25.7088 5.7C25.4021 5.83333 25.0754 5.9 24.7288 5.9C24.3821 5.9 24.0554 5.83333 23.7488 5.7C23.4554 5.56667 23.1954 5.38667 22.9688 5.16C22.7421 4.92 22.5621 4.65333 22.4288 4.36C22.2954 4.05333 22.2288 3.72667 22.2288 3.38C22.2288 3.03333 22.2954 2.70666 22.4288 2.4C22.5621 2.08 22.7421 1.80667 22.9688 1.58C23.1954 1.34 23.4554 1.15333 23.7488 1.02C24.0554 0.886664 24.3821 0.819998 24.7288 0.819998C25.0754 0.819998 25.4021 0.886664 25.7088 1.02C26.0288 1.15333 26.3021 1.34 26.5288 1.58C26.7688 1.80667 26.9554 2.08 27.0888 2.4C27.2354 2.70666 27.3088 3.03333 27.3088 3.38ZM49.7581 9.74L41.4981 30H38.2981L30.0381 9.74H32.9381C33.2315 9.74 33.4715 9.81333 33.6581 9.96C33.8448 10.1067 33.9715 10.28 34.0381 10.48L39.1781 23.52C39.3381 24.0133 39.4781 24.4933 39.5981 24.96C39.7181 25.4267 39.8315 25.8933 39.9381 26.36C40.0448 25.8933 40.1581 25.4267 40.2781 24.96C40.3981 24.4933 40.5448 24.0133 40.7181 23.52L45.9181 10.48C45.9981 10.2667 46.1315 10.0933 46.3181 9.96C46.5048 9.81333 46.7248 9.74 46.9781 9.74H49.7581ZM66.0363 17.66C66.0363 16.8333 65.9163 16.08 65.6763 15.4C65.4496 14.7067 65.1096 14.1133 64.6563 13.62C64.2163 13.1133 63.6763 12.7267 63.0363 12.46C62.3963 12.18 61.6696 12.04 60.8563 12.04C59.1496 12.04 57.7963 12.54 56.7963 13.54C55.8096 14.5267 55.1963 15.9 54.9563 17.66H66.0363ZM68.9163 27.16C68.4763 27.6933 67.9496 28.16 67.3363 28.56C66.7229 28.9467 66.0629 29.2667 65.3563 29.52C64.6629 29.7733 63.9429 29.96 63.1963 30.08C62.4496 30.2133 61.7096 30.28 60.9763 30.28C59.5763 30.28 58.2829 30.0467 57.0963 29.58C55.9229 29.1 54.9029 28.4067 54.0363 27.5C53.1829 26.58 52.5163 25.4467 52.0363 24.1C51.5563 22.7533 51.3163 21.2067 51.3163 19.46C51.3163 18.0467 51.5296 16.7267 51.9563 15.5C52.3963 14.2733 53.0229 13.2133 53.8363 12.32C54.6496 11.4133 55.6429 10.7067 56.8163 10.2C57.9896 9.68 59.3096 9.42 60.7763 9.42C61.9896 9.42 63.1096 9.62667 64.1363 10.04C65.1763 10.44 66.0696 11.0267 66.8163 11.8C67.5763 12.56 68.1696 13.5067 68.5963 14.64C69.0229 15.76 69.2363 17.04 69.2363 18.48C69.2363 19.04 69.1763 19.4133 69.0563 19.6C68.9363 19.7867 68.7096 19.88 68.3763 19.88H54.8363C54.8763 21.16 55.0496 22.2733 55.3563 23.22C55.6763 24.1667 56.1163 24.96 56.6763 25.6C57.2363 26.2267 57.9029 26.7 58.6763 27.02C59.4496 27.3267 60.3163 27.48 61.2763 27.48C62.1696 27.48 62.9363 27.38 63.5763 27.18C64.2296 26.9667 64.7896 26.74 65.2563 26.5C65.7229 26.26 66.1096 26.04 66.4163 25.84C66.7363 25.6267 67.0096 25.52 67.2363 25.52C67.5296 25.52 67.7563 25.6333 67.9163 25.86L68.9163 27.16ZM76.9891 13.8C77.6291 12.4133 78.4157 11.3333 79.3491 10.56C80.2824 9.77333 81.4224 9.38 82.7691 9.38C83.1957 9.38 83.6024 9.42667 83.9891 9.52C84.3891 9.61333 84.7424 9.76 85.0491 9.96L84.7891 12.62C84.7091 12.9533 84.5091 13.12 84.1891 13.12C84.0024 13.12 83.7291 13.08 83.3691 13C83.0091 12.92 82.6024 12.88 82.1491 12.88C81.5091 12.88 80.9357 12.9733 80.4291 13.16C79.9357 13.3467 79.4891 13.6267 79.0891 14C78.7024 14.36 78.3491 14.8133 78.0291 15.36C77.7224 15.8933 77.4424 16.5067 77.1891 17.2V30H73.6091V9.74H75.6491C76.0357 9.74 76.3024 9.81333 76.4491 9.96C76.5957 10.1067 76.6957 10.36 76.7491 10.72L76.9891 13.8ZM91.9394 9.74V30H88.3794V9.74H91.9394ZM92.6994 3.38C92.6994 3.72667 92.626 4.05333 92.4794 4.36C92.346 4.65333 92.1594 4.92 91.9194 5.16C91.6927 5.38667 91.4194 5.56667 91.0994 5.7C90.7927 5.83333 90.466 5.9 90.1194 5.9C89.7727 5.9 89.446 5.83333 89.1394 5.7C88.846 5.56667 88.586 5.38667 88.3594 5.16C88.1327 4.92 87.9527 4.65333 87.8194 4.36C87.686 4.05333 87.6194 3.72667 87.6194 3.38C87.6194 3.03333 87.686 2.70666 87.8194 2.4C87.9527 2.08 88.1327 1.80667 88.3594 1.58C88.586 1.34 88.846 1.15333 89.1394 1.02C89.446 0.886664 89.7727 0.819998 90.1194 0.819998C90.466 0.819998 90.7927 0.886664 91.0994 1.02C91.4194 1.15333 91.6927 1.34 91.9194 1.58C92.1594 1.80667 92.346 2.08 92.4794 2.4C92.626 2.70666 92.6994 3.03333 92.6994 3.38Z" fill="#08536A"/>
</svg>
